<?xml version="1.0" encoding="UTF-8" standalone="no"?>
<!-- Created with Inkscape (http://www.inkscape.org/) -->

<svg
   xmlns:dc="http://purl.org/dc/elements/1.1/"
   xmlns:cc="http://creativecommons.org/ns#"
   xmlns:rdf="http://www.w3.org/1999/02/22-rdf-syntax-ns#"
   xmlns:svg="http://www.w3.org/2000/svg"
   xmlns="http://www.w3.org/2000/svg"
   xmlns:xlink="http://www.w3.org/1999/xlink"
   xmlns:sodipodi="http://sodipodi.sourceforge.net/DTD/sodipodi-0.dtd"
   xmlns:inkscape="http://www.inkscape.org/namespaces/inkscape"
   id="svg2"
   sodipodi:docname="odfbanner3.svg"
   inkscape:export-filename="/home/franklin/sunjun/宜蘭縣政府PL1071701134/海報文宣/banner.png"
   viewBox="0 0 1979.5 247.67"
   inkscape:export-xdpi="27.280001"
   version="1.1"
   inkscape:export-ydpi="27.280001"
   inkscape:version="0.92.4 (5da689c313, 2019-01-14)">
  <defs
     id="defs29">
    <linearGradient
       id="linearGradient3146"
       y2="98.032997"
       gradientUnits="userSpaceOnUse"
       x2="685.45001"
       gradientTransform="matrix(2.1114,0,0,2.1114,-1199.2,57.834)"
       y1="0.35354999"
       x1="680.72998">
      <stop
         id="stop6018-1"
         style="stop-color:#bfdce8"
         offset="0" />
      <stop
         id="stop6058-1"
         style="stop-color:#0093d9"
         offset=".5" />
      <stop
         id="stop6020-0"
         style="stop-color:#005a85"
         offset="1" />
    </linearGradient>
    <radialGradient
       id="radialGradient3143"
       gradientUnits="userSpaceOnUse"
       cy="-49.945"
       cx="825.94"
       gradientTransform="matrix(1.5613,2.6152,-1.7599,1.0507,-1032.1,-1931.2)"
       r="28.721001">
      <stop
         id="stop3293-4"
         style="stop-color:#ffffff;stop-opacity:.29947"
         offset="0" />
      <stop
         id="stop3295-0"
         style="stop-color:#ffffff;stop-opacity:0"
         offset="1" />
    </radialGradient>
    <radialGradient
       id="radialGradient3154"
       xlink:href="#linearGradient6749-3"
       gradientUnits="userSpaceOnUse"
       cy="-76.523003"
       cx="791.32001"
       gradientTransform="matrix(3.1508,-0.94209,0.80006,2.6758,-1622.6,875.75)"
       r="24.379999" />
    <linearGradient
       id="linearGradient6749-3">
      <stop
         id="stop6751-9"
         style="stop-color:#ffffff"
         offset="0" />
      <stop
         id="stop6753-1"
         style="stop-color:#1cbeff;stop-opacity:0"
         offset="1" />
    </linearGradient>
    <filter
       style="color-interpolation-filters:sRGB"
       id="filter10073-9">
      <feGaussianBlur
         id="feGaussianBlur10075-6"
         stdDeviation="0.84232564" />
    </filter>
    <linearGradient
       id="linearGradient3139"
       y2="27.08"
       gradientUnits="userSpaceOnUse"
       x2="675.22998"
       gradientTransform="matrix(2.1114,0,0,2.1114,-1199.2,57.834)"
       y1="162.57001"
       x1="675.22998">
      <stop
         id="stop9946-3"
         style="stop-color:#ace4fc"
         offset="0" />
      <stop
         id="stop9948-3"
         style="stop-color:#0093d9"
         offset=".58488" />
      <stop
         id="stop9950-8"
         style="stop-color:#0093d9"
         offset="1" />
    </linearGradient>
    <linearGradient
       id="linearGradient3134"
       y2="103.32"
       gradientUnits="userSpaceOnUse"
       x2="673.84003"
       gradientTransform="matrix(2.1114,0,0,2.1114,-1199.2,57.834)"
       y1="-33.830002"
       x1="671.25">
      <stop
         id="stop6745-5"
         style="stop-color:#ffffff"
         offset="0" />
      <stop
         id="stop6747-6"
         style="stop-color:#1abdff;stop-opacity:0"
         offset="1" />
    </linearGradient>
    <radialGradient
       id="radialGradient3136"
       gradientUnits="userSpaceOnUse"
       cy="1.4107"
       cx="798.10999"
       gradientTransform="matrix(2.1114,0,0,0.98155,-1389.2,222.21)"
       r="74.828003">
      <stop
         id="stop6736"
         style="stop-color:#ffffff;stop-opacity:.45418"
         offset="0" />
      <stop
         id="stop6738"
         style="stop-color:#ffffff;stop-opacity:0"
         offset="1" />
    </radialGradient>
    <radialGradient
       id="radialGradient3152"
       fx="782.51001"
       fy="-25.415001"
       gradientUnits="userSpaceOnUse"
       cy="-5.7449002"
       cx="793.34998"
       gradientTransform="matrix(-0.688,0.8402,-1.1705,-0.9585,1275.5,-725.46)"
       r="70.848999">
      <stop
         id="stop3303-4"
         style="stop-color:#ffffff"
         offset="0" />
      <stop
         id="stop3310-0"
         style="stop-color:#0093d9"
         offset=".5" />
      <stop
         id="stop3305-0"
         style="stop-color:#066795"
         offset="1" />
    </radialGradient>
    <filter
       style="color-interpolation-filters:sRGB"
       id="filter9927-4">
      <feGaussianBlur
         id="feGaussianBlur9929-6"
         stdDeviation="0.89804012" />
    </filter>
    <linearGradient
       id="linearGradient3130"
       y2="129.12"
       gradientUnits="userSpaceOnUse"
       x2="770.26001"
       gradientTransform="matrix(2.1114,0,0,2.1114,-1199.2,57.834)"
       y1="-0.66500002"
       x1="690.08002">
      <stop
         id="stop7200-6"
         style="stop-color:#bfdce8"
         offset="0" />
      <stop
         id="stop7202-7"
         style="stop-color:#0093d9"
         offset=".51309" />
      <stop
         id="stop7204-5"
         style="stop-color:#005a85"
         offset="1" />
    </linearGradient>
    <radialGradient
       id="radialGradient3150"
       fx="760.15997"
       fy="46.27"
       gradientUnits="userSpaceOnUse"
       cy="43.053001"
       cx="760.10999"
       gradientTransform="matrix(0.19571,0.19571,-0.6086,0.6086,664.49,-142.22)"
       r="99.813004">
      <stop
         id="stop3372-9"
         style="stop-color:#ffffff"
         offset="0" />
      <stop
         id="stop3376-8"
         style="stop-color:#0093d9;stop-opacity:0"
         offset="1" />
    </radialGradient>
    <filter
       style="color-interpolation-filters:sRGB"
       id="filter4887-7">
      <feGaussianBlur
         id="feGaussianBlur4889-2"
         stdDeviation="1.6713647" />
    </filter>
    <radialGradient
       id="radialGradient3126"
       fx="531.70001"
       fy="149.89"
       xlink:href="#linearGradient6749-3"
       gradientUnits="userSpaceOnUse"
       cy="127.88"
       cx="605.59003"
       gradientTransform="matrix(0.15334,0.52178,-3.1034,0.912,365.42,-21.702)"
       r="99.813004" />
    <radialGradient
       id="radialGradient3148"
       gradientUnits="userSpaceOnUse"
       cy="31.353001"
       cx="839.97998"
       gradientTransform="matrix(0.35966,0.62295,-3.01,1.7378,624.05,-506.39)"
       r="99.813004">
      <stop
         id="stop6739-2"
         style="stop-color:#8fdfff"
         offset="0" />
      <stop
         id="stop6741-9"
         style="stop-color:#0093d9;stop-opacity:0"
         offset="1" />
    </radialGradient>
    <filter
       style="color-interpolation-filters:sRGB"
       id="filter4879-9">
      <feGaussianBlur
         id="feGaussianBlur4881-6"
         stdDeviation="0.82978208" />
    </filter>
    <radialGradient
       id="radialGradient3120"
       gradientUnits="userSpaceOnUse"
       cy="-11.461"
       cx="749.71997"
       gradientTransform="matrix(1.7704e-6,1.6762,-1.5682,0,317.59,-1023)"
       r="99.813004">
      <stop
         id="stop6774"
         style="stop-color:#ffffff"
         offset="0" />
      <stop
         id="stop6776"
         style="stop-color:#0093d9;stop-opacity:0"
         offset="1" />
    </radialGradient>
    <radialGradient
       id="radialGradient3122"
       gradientUnits="userSpaceOnUse"
       cy="20.761999"
       cx="843.64001"
       gradientTransform="matrix(0.62714,-0.16804,0.48362,1.8049,-143.63,387.38)"
       r="58.715">
      <stop
         id="stop6766"
         style="stop-color:#ffffff"
         offset="0" />
      <stop
         id="stop6768"
         style="stop-color:#ffffff;stop-opacity:0"
         offset="1" />
    </radialGradient>
    <radialGradient
       id="radialGradient3115"
       gradientUnits="userSpaceOnUse"
       cy="-67.584"
       cx="490.67999"
       gradientTransform="matrix(0,0.46274,-1.5463,-7.0171e-7,324.37,-96.229)"
       r="99.813004">
      <stop
         id="stop4767-2"
         style="stop-color:#ffffff"
         offset="0" />
      <stop
         id="stop4769-7"
         style="stop-color:#ffffff;stop-opacity:0"
         offset="1" />
    </radialGradient>
    <radialGradient
       id="radialGradient3117"
       gradientUnits="userSpaceOnUse"
       cy="-35.639"
       cx="867.01001"
       gradientTransform="matrix(2.1114,0,0,0.78798,-1389.2,189.39)"
       r="22.634001">
      <stop
         id="stop3372"
         style="stop-color:#ffffff"
         offset="0" />
      <stop
         id="stop3376"
         style="stop-color:#0093d9;stop-opacity:0"
         offset="1" />
    </radialGradient>
  </defs>
  <sodipodi:namedview
     id="base"
     bordercolor="#666666"
     inkscape:pageshadow="2"
     inkscape:window-y="0"
     fit-margin-left="0"
     pagecolor="#ffffff"
     inkscape:window-height="993"
     inkscape:window-maximized="1"
     inkscape:zoom="1"
     inkscape:window-x="0"
     showgrid="false"
     borderopacity="1.0"
     inkscape:current-layer="layer1"
     inkscape:cx="776.30653"
     inkscape:cy="214.20989"
     fit-margin-top="0"
     fit-margin-right="0"
     fit-margin-bottom="0"
     inkscape:window-width="1920"
     inkscape:pageopacity="0.0"
     inkscape:document-units="px" />
  <g
     id="layer1"
     inkscape:label="Layer 1"
     inkscape:groupmode="layer"
     transform="translate(496.78 -44.609)">
    <path
       id="path3923"
       style="fill:#ffffff;stroke:#483737;stroke-width:3.21839309;stroke-opacity:0.99607999"
       d="M 1173.6889,255.1205 C 1069.021,238.26695 962.63255,229.47292 856.18305,228.87433 582.06091,227.33347 310.76038,279.91865 36.661267,283.38529 -130.71192,285.50225 -298.38462,269.17894 -461.05892,234.93121 V 45.150159 c 162.6168,34.250729 330.1858,50.575637 497.639567,48.457076 C 310.64521,90.140591 581.95726,37.555319 856.06788,39.096272 962.51968,39.694656 1068.9093,48.48909 1173.5737,65.342439 V 255.12349"
       sodipodi:nodetypes="cssccsscc"
       inkscape:connector-curvature="0"
       inkscape:original-d="m 61.744632,262.31482 c 0,0 163.925578,-28.2843 275.692978,-26.264 111.76743,2.0203 581.19045,54.5482 711.58599,54.5482 130.3953,0 432.1673,-48.4873 432.1673,-48.4873 V 52.203024 c 0,0 -301.772,48.487396 -432.1673,48.487396 -130.39554,0 -599.81856,-52.527996 -711.58599,-54.548296 -111.7674,-2.0203 -275.692978,26.264 -275.692978,26.264 z" />
    <text
       id="text3871"
       xml:space="preserve"
       style="font-weight:600;font-size:75px;line-height:125%;font-family:Intuitive;letter-spacing:0px;word-spacing:0px;fill:#483737;fill-opacity:0.99607999" />
    <path
       id="path3888"
       style="fill:none;stroke-opacity:0"
       d="m 1081.8951,170.32423 c -93.47904,-16.887 -188.42004,-25.685 -283.41004,-26.264 -244.63,-1.491 -486.88,51.321 -731.500003,54.548 -114.96998,1.5166 -230.079977,-7.9687 -343.239977,-28.284"
       sodipodi:nodetypes="cssc"
       inkscape:connector-curvature="0"
       inkscape:original-d="m 103.82313,177.45114 c 0,0 168.51238,-28.28427 283.40717,-26.26397 114.8948,2.02031 597.45292,54.54823 731.497,54.54823 134.0439,0 343.2445,-28.28426 343.2445,-28.28426" />
    <rect
       id="rect3933"
       style="fill:#ffcc00;stroke-opacity:0"
       rx="5.6018"
       ry="5.6018"
       height="196.85001"
       width="11.204"
       y="62.793232"
       x="-1184.592"
       transform="scale(-1,1)" />
    <path
       id="path3849-9"
       sodipodi:nodetypes="ccc"
       style="fill-opacity:0;stroke:#483737;stroke-width:3;stroke-opacity:0.99607999"
       inkscape:connector-curvature="0"
       d="m 1178.6251,67.130232 86.906,103.519998 -87.054,84.018" />
    <path
       style="fill:none;fill-rule:evenodd;stroke:none;stroke-width:1px;stroke-linecap:butt;stroke-linejoin:miter;stroke-opacity:1"
       d="m 1119.3881,201.64325 c -21.4014,-16.67952 -11.7435,-15.85157 -24.3797,-15.85157 -1.3468,0 -3.0882,0.95238 -4.0406,0 -0.9523,-0.95239 0.9524,-3.08823 0,-4.04061 -0.9523,-0.95239 -2.6937,0 -4.0406,0 -1.9051,0 -20.0199,0.18312 -20.203,0 -0.9524,-0.95239 0.9524,-3.08823 0,-4.04062 -2.0203,-2.0203 -10.1016,2.02031 -12.1219,0 -0.9523,-0.95238 0.9524,-3.08822 0,-4.04061 -1.2511,-1.25116 -18.9518,1.25117 -20.203,0 -0.9524,-0.95238 0.9524,-3.08822 0,-4.04061 -0.9524,-0.95238 -2.6938,0 -4.0406,0 -1.9052,0 -20.0199,0.18313 -20.2031,0 -0.9524,-0.95238 0.9524,-3.08822 0,-4.04061 -0.9524,-0.95238 -2.6937,0 -4.0406,0 -1.3469,0 -2.6937,0 -4.0406,0 -8.08121,0 -16.16243,0 -24.24365,0 -1.34687,0 -2.69374,0 -4.04061,0 -1.34687,0 -2.83593,0.60234 -4.04061,0 -1.70367,-0.85183 -2.33694,-3.18877 -4.04061,-4.04061 -1.0447,-0.52235 -21.37967,0 -24.24366,0 -17.50931,0 -35.01862,0 -52.52794,0 -2.11291,0 -15.09999,0.53123 -16.16244,0 -1.70367,-0.85183 -2.33694,-3.18877 -4.04061,-4.04061 -1.20467,-0.60233 -2.69374,0 -4.04061,0 -1.34687,0 -2.69374,0 -4.04061,0 -6.73435,0 -13.4687,0 -20.20305,0 -0.97995,0 -11.99188,-0.12994 -12.12183,0 -0.95238,0.95238 0.95238,3.08823 0,4.04061 -0.1626,0.1626 -14.67858,0 -16.16244,0 -1.34687,0 -3.08823,-0.95238 -4.04061,0 -0.95238,0.95238 -1.34687,4.04061 0,4.04061 1.34687,0 0.95238,-3.08823 0,-4.04061 -0.12995,-0.12994 -11.14187,0 -12.12183,0 -14.81557,0 -29.63114,0 -44.44671,0 -9.42809,0 -18.85618,0 -28.28428,0 -1.34687,0 -3.08822,-0.95238 -4.04061,0 -5.38748,5.38748 6.73436,4.04061 -4.04061,4.04061 -18.85618,0 -37.71236,0 -56.56854,0 -1.34687,0 -2.69374,0 -4.04061,0 -1.34687,0 -3.08823,-0.95238 -4.04061,0 -0.95238,0.95239 0.95238,3.08823 0,4.04061 -1.25116,1.25117 -18.95189,-1.25116 -20.20305,0 -0.95238,0.95239 0.95238,3.08823 0,4.04061 -0.95238,0.95239 -2.69374,0 -4.04061,0 -6.73435,0 -13.4687,0 -20.20305,0 -10.77496,0 -21.54992,0 -32.32488,0 -1.34687,0 -2.69374,0 -4.04061,0 -1.34687,0 -3.08823,-0.95238 -4.04061,0 -0.95239,0.95239 0.95238,3.08823 0,4.04061 -0.95239,0.95239 -2.69374,0 -4.04061,0 -1.34687,0 -2.69374,0 -4.04061,0 -10.77497,0 -21.54993,0 -32.32489,0 -1.34687,0 -3.08823,-0.95238 -4.04061,0 -0.95238,0.95239 0.95238,3.08823 0,4.04062 -0.95238,0.95238 -2.69374,0 -4.04061,0 -9.42809,0 -18.8562,0 -28.2843,0 -25.6612,0 -27.6311,0 -52.5279,0 -1.9051,0 -20.0199,-0.18313 -20.2031,0 -0.9523,0.95238 0.9524,3.08822 0,4.04061 -1.2511,1.25116 -18.9518,-1.25117 -20.203,0 -0.9524,0.95238 0.9524,3.08822 0,4.04061 -0.9524,0.95238 -2.6937,0 -4.0406,0 -6.7344,0 -13.4687,0 -20.2031,0 -1.3468,0 -3.0882,-0.95239 -4.0406,0 -0.9524,0.95238 0.9524,3.08822 0,4.04061 -0.9524,0.95238 -2.6937,0 -4.0406,0 -1.3469,0 -2.6937,0 -4.0406,0 -10.775,0 -21.5499,0 -32.3249,0 -1.3468,0 -3.0882,-0.95239 -4.0406,0 -0.9524,0.95238 0.9524,3.08823 0,4.04061 -0.9524,0.95238 -2.6937,0 -4.0406,0 -8.0812,0 -16.1624,0 -24.2437,0 -1.3468,0 -2.6937,0 -4.0406,0 -1.3468,0 -3.0882,-0.95238 -4.0406,0 -0.9524,0.95238 0.9524,3.08823 0,4.04061 -0.9723,0.97229 -15.1901,-0.9723 -16.1624,0 -5.3875,5.38748 6.7343,4.04061 -4.0406,4.04061 -4.0406,0 -8.0813,0 -12.1219,0 -1.3468,0 -4.0406,-1.34687 -4.0406,0 0,1.34687 5.3875,0 4.0406,0 -2.6937,0 -5.3874,0 -8.0812,0 -0.9799,0 -11.9919,-0.12995 -12.1218,0 -0.9524,0.95238 0.9524,3.08823 0,4.04061 -0.1831,0.18312 -18.2979,0 -20.2031,0 -1.3468,0 -3.0882,-0.95238 -4.0406,0 -0.9524,0.95238 0.9524,3.08823 0,4.04061 -0.9524,0.95238 -2.6937,0 -4.0406,0 -1.3469,0 -2.6937,0 -4.0406,0 -8.0812,0 -16.1624,0 -24.2437,0 -1.3468,0 -3.0882,-0.95238 -4.0406,0 -0.9523,0.95238 0.9524,3.08823 0,4.04061 -0.9523,0.95238 -2.6937,0 -4.0406,0 -1.3468,0 -2.6937,0 -4.0406,0 -10.7749,0 -21.5499,0 -32.3249,0 -1.3468,0 -2.6937,0 -4.0406,0 -1.3468,0 -3.0882,-0.95238 -4.0406,0 -0.9524,0.95238 0.9524,3.08823 0,4.04061 -0.1626,0.1626 -14.6786,0 -16.1624,0 -28.284303,0 -56.568603,0 -84.852803,0 -26.9374005,0 -53.8748,0 -80.8123,0 -12.1218,0 -24.2436,0 -36.3654,0 -1.3469,0 -2.6938,0 -4.0407,0 -1.3468,0 -3.088197,0.95238 -4.040597,0 -0.9523,-0.95238 0.9524,-3.08823 0,-4.04061 -0.1299,-0.12995 -11.1418,0 -12.1218,0 -10.775,0 -21.5499,0 -32.3249,0 -1.3468,0 -2.6937,0 -4.0406,0 -1.3469,0 -3.0882,0.95238 -4.0406,0 -0.9524,-0.95238 0.9524,-3.08823 0,-4.04061 -0.1626,-0.1626 -14.6786,0 -16.1624,0 -6.7344,0 -13.4687,0 -20.2031,0 -1.3469,0 -3.0882,0.95238 -4.0406,0 -0.9524,-0.95238 0.9524,-3.08823 0,-4.04061 -0.9524,-0.95238 -2.6937,0 -4.0406,0 -6.7344,0 -13.4687,0 -20.2031,0 -1.3468,0 -3.0882,0.95238 -4.0406,0 -0.9524,-0.95238 0.9524,-3.08823 0,-4.04061 -0.1626,-0.1626 -14.6786,0 -16.1624,0 -1.4839,0 -15.9999,0.1626 -16.1625,0 -0.9523,-0.95238 0.9524,-3.08823 0,-4.04061 -0.9523,-0.95238 -2.6937,0 -4.0406,0 -8.0812,0 -16.1624,0 -24.2436,0 -1.3469,0 -2.6938,0 -4.0406,0 -1.3469,0 -3.0883,0.95238 -4.0406,0 -0.9524,-0.95238 0.9523,-3.08823 0,-4.04061 -0.9524,-0.95238 -2.6938,0 -4.0407,0 -9.428,0 -18.8561,0 -28.2842,0 -10.775,0 1.3468,1.34687 -4.0406,-4.04061 -0.1832,-0.18313 -18.2979,0 -20.2031,0 -1.3469,0 -3.0882,0.95238 -4.0406,0 -0.9524,-0.95239 0.9524,-3.08823 0,-4.04061 -0.1626,-0.1626 -14.6786,0 -16.1624,0 -1.9052,0 -20.02,0.18312 -20.2031,0 -0.9524,-0.95239 0.9524,-3.08823 0,-4.04061 -2.0203,-2.02031 -10.1015,2.0203 -12.1218,0 -0.9524,-0.95239 0.9524,-3.08823 0,-4.04061 -0.9524,-0.95239 -2.6938,0 -4.0406,0 -9.4281,0 -18.8562,0 -28.2843,0 -10.775,0 1.3469,1.34687 -4.0406,-4.04062 -0.9524,-0.95238 -2.6938,0 -4.0406,0 -6.9098,0 -13.8194,0.40819 -20.6355,-0.77924"
       id="path88"
       inkscape:connector-curvature="0" />
    <path
       inkscape:connector-curvature="0"
       id="path4826"
       d="m 1291.218,253.18816 c -5.7283,-0.40977 -22.9184,-13.60665 -23.4807,-15.07286 -0.8651,-0.67426 -1.17,-3.00169 0.508,-3.28671 0.5342,-0.0908 7.5785,-1.58936 15.8167,-2.89842 40.0613,-6.36587 52.8918,-10.13414 64.2927,-18.88248 6.4535,-4.95209 62.49,-63.38495 67.0667,-69.93489 1.8976,-2.71568 5.7887,-9.61064 7.746,-15.64886 5.4444,-16.79569 14.2748,-21.51647 22.0455,-21.41834 4.6854,0.0589 8.7158,2.61366 10.8337,5.94997 1.9458,2.12023 5.0527,3.71559 12.9516,6.05464 -6.8782,2.11476 -13.1339,4.80124 -14.3353,10.70882 -5.5274,20.57428 1.6433,32.33004 -5.9266,57.47155 -10.6678,31.58263 -35.6633,50.72831 -110.654,53.24603 -9.579,0.32143 -11.2012,0.33305 -16.6272,2.3841 -7.5447,2.85164 -11.976,9.42895 -30.2371,11.32745 z m -25.6869,-82.53793 c 1.1777,-1.91099 55.8158,-63.33508 56.9714,-64.04936 35.0288,-5.2989 68.773,3.02263 80.2653,38.81337 -19.682,20.59074 -31.4035,34.91404 -53.5365,56.99335 -28.1141,-30.71153 -40.4943,-32.09251 -83.7002,-31.75736 z m 115.3338,-64.37817 c 0,-0.87093 45.1997,-35.873977 45.688,-35.385363 -7.4191,12.56406 -15.3853,40.659533 -14.1986,65.025103 l -3.322,3.60875 c -6.6051,-15.54364 -13.4582,-23.90764 -28.1674,-33.24849 z"
       style="opacity:1;fill:#0369a3;fill-opacity:1;stroke-width:0.81386852"
       sodipodi:nodetypes="ccssssssccccssccccccccccc" />
    <path
       style="fill:none;fill-rule:evenodd;stroke:none;stroke-width:1px;stroke-linecap:butt;stroke-linejoin:miter;stroke-opacity:1"
       d="m 1050.5617,247.83229 c -40.2707,0 -4.5028,3.80952 -20.203,-4.04061 -1.2047,-0.60234 -2.6938,0 -4.0406,0 -1.3469,0 -4.0406,-1.34687 -4.0406,0 0,1.34687 4.9929,0.95238 4.0406,0 -2.1296,-2.12959 -5.2241,-3.08823 -8.0813,-4.04061 -3.9001,-1.30007 -15.7094,1.12339 -20.203,0 -4.13201,-1.03301 -7.98982,-3.00761 -12.12183,-4.04062 -1.30666,-0.32666 -3.08823,0.95239 -4.04061,0 -0.95238,-0.95238 0.95238,-3.08822 0,-4.04061 -0.95238,-0.95238 -2.69374,0 -4.04061,0 -1.82794,0 -23.16684,0.53841 -24.24366,0 -1.70367,-0.85183 -2.33694,-3.18877 -4.04061,-4.04061 -1.2297,-0.61484 -10.30211,0 -12.12183,0 -9.42809,0 -18.85618,0 -28.28427,0 -1.34687,0 -2.69374,0 -4.04061,0 -1.34687,0 -3.08823,0.95239 -4.04061,0 -0.95239,-0.95238 0.95238,-3.08822 0,-4.04061 -0.95239,-0.95238 -2.69375,0 -4.04062,0 -1.34687,0 -2.69374,0 -4.04061,0 -12.12183,0 -24.24366,0 -36.36549,0 -4.67711,0 -16.59566,-0.90184 -20.20305,0 -2.92177,0.73045 -5.22408,3.08823 -8.08122,4.04061 -2.63715,0.87906 -19.41266,0 -24.24366,0 -1.34687,0 -2.69374,0 -4.04061,0 -1.34687,0 -2.83593,-0.60233 -4.04061,0 -1.70367,0.85184 -2.33694,3.18878 -4.04061,4.04061 -1.2297,0.61485 -10.30211,0 -12.12183,0 -8.08122,0 -16.16244,0 -24.24366,0 -18.85618,0 -37.71237,0 -56.56855,0 -28.28427,0 -56.56854,0 -84.85281,0 -8.08122,0 -16.16244,0 -24.24366,0 -1.81972,0 -10.89214,-0.61484 -12.12183,0 -1.70367,0.85184 -2.33694,3.18878 -4.04061,4.04061 -2.53962,1.26981 -13.62283,-1.2698 -16.16244,0 -1.70368,0.85184 -2.33694,3.18878 -4.04061,4.04062 -2.19199,1.09599 -15.05685,-1.1056 -16.16245,0 -0.95238,0.95238 0.95239,3.08822 0,4.04061 -1.1056,1.1056 -13.97046,-1.096 -16.16244,0 -1.70367,0.85183 -2.33694,3.18877 -4.04061,4.04061 -1.0447,0.52235 -21.3797,0 -24.2437,0 -2.1129,0 -15.1,-0.53123 -16.1624,0 -1.7037,0.85183 -2.3369,3.18877 -4.0406,4.04061 -1.2047,0.60233 -2.6937,0 -4.0406,0 -1.3469,0 -2.6938,0 -4.0406,0 -27.8825,0 -74.2011,0 -88.8935,0 -17.9718,0 -20.9129,0 -32.3248,0 -1.8198,0 -10.8922,-0.61485 -12.1219,0 -1.7036,0.85183 -2.3369,3.18877 -4.0406,4.04061 -1.4612,0.73061 -17.3926,0 -20.203,0 -9.1287,0 1.807,-0.60234 -12.1219,4.04061 -2.5431,0.84772 -16.5609,0 -20.203,0 -1.3469,0 -2.6938,0 -4.0406,0 -1.3469,0 -3.0883,-0.95238 -4.0406,0 -0.9524,0.95238 0.9523,3.08823 0,4.04061 -0.1832,0.18312 -18.2979,0 -20.2031,0 -6.7343,0 -13.4687,0 -20.203,0 -1.3469,0 -2.6938,0 -4.0406,0 -1.3469,0 -2.836,-0.60234 -4.0407,0 -1.7036,0.85183 -2.2335,3.43827 -4.0406,4.04061 -1.8407,0.61358 -25.5479,0 -28.2842,0 -1.3469,0 -2.836,-0.60234 -4.0406,0 -1.7037,0.85183 -2.2336,3.43827 -4.0407,4.04061 -2.0816,0.69387 -24.01,0 -28.2842,0 -0.9602,0 -15.2568,-0.45281 -16.1625,0 -1.7036,0.85183 -2.3369,3.18877 -4.0406,4.04061 -1.0447,0.52235 -21.3796,0 -24.2436,0 -9.428103,0 -18.856203,0 -28.284303,0 -1.3469,0 -2.6938,0 -4.0406,0 -1.3469,0 -4.0406,-1.34687 -4.0406,0 0,1.34687 4.0406,-1.34687 4.0406,0 0,5.73785 -9.249,4.04061 -12.1219,4.04061 -1.3468,0 -4.0406,-1.34687 -4.0406,0 0,1.34687 5.3875,0 4.0406,0 -4.0406,0 -8.0812,0 -12.1218,0 -8.0812,0 -16.1624,0 -24.2436,0 -14.8156005,0 -29.6312005,0 -44.4468,0 -5.3874,0 -10.7749,0 -16.1624,0 -1.3469,0 -2.6937,0 -4.0406,0 -1.3469,0 -4.0406,-1.34687 -4.0406,0 0,1.34687 5.3875,0 4.0406,0 -0.9353,0 -22.8004,0.72161 -24.2437,0 -1.7036,-0.85184 -2.3369,-3.18878 -4.0406,-4.04061 -1.2047,-0.60234 -2.6937,0 -4.0406,0 -2.6937,0 -5.3875,0 -8.0812,0 -2.6938,0 -10.775,0 -8.0812,0 2.6937,0 10.7749,0 8.0812,0 -5.3875,0 -10.775,0 -16.1625,0 -9.475897,0 1.9048,0.95238 -8.081197,-4.04061 -1.2297,-0.61485 -10.3021,0 -12.1218,0 -8.0812,0 -16.1624,0 -24.2437,0 -2.6551,0 -9.8421,0.7599 -12.1218,0 -2.8571,-0.95238 -5.2241,-3.08823 -8.0812,-4.04061 -2.2797,-0.75991 -9.4667,0 -12.1218,0 -8.0813,0 -16.1625,0 -24.2437,0 -1.3469,0 -2.6937,0 -4.0406,0 -1.3469,0 -2.836,0.60234 -4.0406,0 -1.7037,-0.85184 -2.337,-3.18878 -4.0406,-4.04061 -1.2047,-0.60234 -2.6938,0 -4.0406,0 -1.3469,0 -2.6938,0 -4.0407,0 -8.0812,0 -16.1624,0 -24.2436,0 -1.3469,0 -2.6938,0 -4.0406,0 -1.3469,0 -2.836,0.60234 -4.0406,0 -1.7037,-0.85184 -2.337,-3.18878 -4.0407,-4.04061 -1.0624,-0.53123 -14.0495,0 -16.1624,0 -1.3469,0 -2.8359,0.60233 -4.0406,0 -1.7037,-0.85184 -2.6937,-5.38748 -4.0406,-4.04061 -1.3469,1.34687 5.9454,4.04061 4.0406,4.04061 -3.0117,0 -5.2241,-3.08823 -8.0812,-4.04061 -1.2778,-0.42592 -2.6938,0 -4.0406,0 -6.7344,0 -13.4687,0 -20.2031,0 -1.3469,0 -2.6937,0 -4.0406,0 -1.3469,0 -2.8359,0.60233 -4.0406,0 -1.7037,-0.85184 -2.3369,-3.18878 -4.0406,-4.04061 -1.2047,-0.60234 -2.8359,0.60233 -4.0406,0 -1.7037,-0.85184 -2.337,-3.18878 -4.0406,-4.04061 -1.2047,-0.60234 -2.6938,0 -4.0406,0 -6.7344,0 -13.4687,0 -20.2031,0 -1.3469,0 -2.6937,0 -4.0406,0 -1.3469,0 -2.8359,0.60233 -4.0406,0 -1.7037,-0.85184 -2.337,-3.18878 -4.0406,-4.04061 -1.2047,-0.60234 -2.6938,0 -4.0406,0 -1.3469,0 -2.6938,0 -4.0406,0"
       id="path110"
       inkscape:connector-curvature="0" />
    <g
       aria-label="文件自由日復活節小遊戲"
       transform="matrix(1.2041438,0,0,1,72.993185,28)"
       style="font-style:normal;font-variant:normal;font-weight:bold;font-stretch:normal;font-size:96px;line-height:1.25;font-family:'思源黑體';-inkscape-font-specification:'思源黑體 Bold';letter-spacing:0px;word-spacing:0px;opacity:0.63999999;fill:#000000;fill-opacity:1;stroke:none"
       id="text964">
      <path
         d="m -293.60465,102.83058 c -5.0211,10.01597 -11.34086,18.032 -18.81624,24.45288 -6.39743,-8.43988 -11.00919,-18.01163 -13.85903,-28.524729 z m 27.34053,3.40705 1.37707,-11.050528 -41.43948,-5.164002 8.51316,-1.551177 c -0.65644,-4.048245 -2.75457,-10.501227 -4.68534,-15.191986 l -12.53766,2.017086 c 1.66872,4.464619 3.09972,10.060525 3.66089,14.096899 l -40.20106,-5.009675 -1.37707,11.050528 14.95632,1.86379 c 3.47036,14.073155 8.61897,26.323855 16.0174,36.823325 -10.86894,6.4817 -23.83455,10.38031 -39.15859,12.24366 1.96579,2.85701 4.63521,8.60725 5.54124,11.42894 15.88345,-2.47083 29.43222,-7.16745 40.97958,-14.4353 8.95796,9.62965 20.46341,17.44841 34.92113,23.31325 2.10649,-2.93 6.05801,-7.46819 8.93877,-9.62451 -13.77872,-5.10303 -25.09335,-12.12407 -33.95575,-20.96787 9.43941,-8.20773 17.30624,-18.54627 23.87413,-31.65873 z"
         style=""
         id="path990" />
      <path
         d="m -235.59962,82.970987 c -6.35362,12.945679 -16.13671,25.463993 -25.58828,32.993003 1.54912,3.09532 3.93305,9.58392 4.6248,12.5724 2.16643,-1.85837 4.36848,-4.00252 6.57052,-6.14667 l -5.97124,47.91737 10.76474,1.34146 8.07246,-64.77896 c 4.43912,-6.12205 8.4494,-12.684514 11.86437,-19.127675 z m 62.81975,54.071243 -24.38737,-3.03905 2.04186,-16.38526 19.91,2.48109 1.37707,-11.05053 -19.91,-2.48109 2.1487,-17.242636 -11.43158,-1.424553 -2.1487,17.242639 -7.90685,-0.98532 c 1.49901,-3.48942 2.90275,-6.990704 4.12783,-10.610998 l -10.67035,-3.651512 c -3.63935,11.34907 -9.05279,22.96077 -15.12296,29.75025 2.6083,1.58269 7.22959,4.86736 9.13544,6.65274 2.51128,-3.07304 5.14128,-7.09872 7.43771,-11.55293 l 11.62211,1.4483 -2.04186,16.38526 -25.72106,-3.20524 -1.37707,11.05053 25.72106,3.20524 -3.98874,32.00843 11.43158,1.42455 3.98874,-32.00843 24.38738,3.03905 z"
         style=""
         id="path992" />
      <path
         d="m -147.36967,168.36082 1.23461,-9.90737 45.25001,5.63885 -1.23461,9.90737 z m 49.013201,-24.55958 -1.222741,9.81211 -45.25001,-5.63885 1.22274,-9.81211 z m 2.52858,-20.29106 -1.222741,9.81211 -45.25001,-5.63885 1.22274,-9.81211 z m -19.223521,-13.42419 c 1.95158,-3.23954 3.93877,-6.76486 5.84256,-10.397318 l -13.52795,-3.233673 c -0.95117,3.751171 -2.56888,8.193221 -4.12724,12.158951 l -24.38738,-3.03904 -9.5445,76.59159 11.52685,1.43642 0.59356,-4.76315 45.25001,5.63885 -0.58169,4.66789 12.09842,1.50765 9.532629,-76.49633 z"
         style=""
         id="path994" />
      <path
         d="m -24.744525,182.3405 0.98529,-16.29023 20.9856498,1.26928 -0.9852904,16.29023 z m -31.116046,-18.23183 20.314875,1.22871 -0.98529,16.29023 -20.314875,-1.22871 z m 21.955094,-25.88973 -0.967903,16.00276 -20.314875,-1.22872 0.967903,-16.00276 z m 32.7721104,1.98217 -0.9679029,16.00276 -20.9856495,-1.26929 0.967903,-16.00275 z m -20.2901504,-12.76827 1.095411,-18.1109 -11.786461,-0.71289 -1.095411,18.1109 -31.718037,-1.91841 -4.312094,71.29371 11.403161,0.6897 0.307179,-5.07872 53.086986,3.21089 -0.3013829,4.98289 11.9781105,0.72448 4.3062984,-71.19789 z"
         style=""
         id="path996" />
      <path
         d="m 43.431618,178.26979 -0.870139,-21.48639 42.589091,-1.72474 0.870139,21.48639 z m 40.425398,-55.15294 0.835177,20.62309 -42.58909,1.72474 -0.835178,-20.62309 z m -54.853566,-9.30803 3.34848,82.68423 11.798329,-0.4778 -0.252495,-6.23489 42.58909,-1.72474 0.244727,6.04304 12.277936,-0.49722 -3.340711,-82.49238 z"
         style=""
         id="path998" />
      <path
         d="m 131.3181,104.09279 c -3.38475,6.57435 -10.93177,14.75843 -17.64777,19.73827 1.82759,2.42403 4.79576,6.91561 6.24355,9.4511 8.20024,-6.28896 16.92431,-16.25013 22.60221,-25.51147 z m 33.27418,62.44874 19.18427,-0.77691 c -2.39296,2.59496 -5.3731,4.92545 -8.74469,7.07965 -3.91455,-1.76305 -7.54521,-3.63367 -10.90365,-5.89963 z m -1.34317,-23.67704 23.59666,-0.9556 0.16315,4.0287 -23.59666,0.9556 z m -0.43896,-10.83912 23.59666,-0.95559 0.15927,3.93277 -23.59666,0.9556 z m 29.6334,24.74118 -1.80697,0.45749 -19.18427,0.77691 c 0.81279,-1.28194 1.52966,-2.55999 2.24265,-3.93397 l 24.17219,-0.9789 -1.21198,-29.92747 -39.80737,1.61209 c 0.81279,-1.28194 1.6217,-2.6598 2.42672,-4.13358 l 42.49317,-1.72086 -0.36903,-9.11253 -37.50526,1.51886 c 0.87764,-2.0532 1.65936,-4.10251 2.24923,-6.14405 l -10.56419,-2.26238 c -2.80026,9.1448 -8.19817,18.20264 -14.68736,24.038 0.49126,0.26834 0.98641,0.6326 1.57747,0.99298 l -8.09743,-3.03483 c -4.79907,9.61006 -13.14334,19.45977 -20.86009,25.82523 1.83923,2.7118 4.97714,9.022 6.04124,11.57303 2.31646,-2.11146 4.61738,-4.60661 7.00645,-7.29749 l 1.56547,38.65632 11.60649,-0.47003 -2.13262,-52.66084 c 2.53819,-3.75378 4.88065,-7.59571 6.83942,-11.4221 2.07262,1.35724 4.34873,2.99448 5.64232,4.09504 0.82833,-0.89825 1.65667,-1.79651 2.48111,-2.79068 l 0.99056,24.45995 8.44108,-0.34184 c -1.54132,2.27223 -3.28225,4.36038 -5.2189,6.36039 -1.5969,-1.47259 -3.00972,-3.14479 -4.2307,-4.82476 l -8.12882,3.30763 c 1.73555,2.52384 3.46333,4.85584 5.47498,7.08026 -2.33199,1.72778 -4.76768,3.26759 -7.40686,4.52742 2.27222,1.54132 6.25669,5.03095 7.96505,6.88334 2.25161,-1.34021 4.49546,-2.87226 6.63561,-4.59227 2.28388,1.82909 4.56,3.46633 7.02407,4.99988 -6.62127,2.57403 -14.12914,4.60749 -21.764,5.87747 2.01166,2.22442 4.58838,6.53969 5.56432,9.28645 9.90202,-2.2265 19.19355,-5.29298 27.38333,-9.4678 7.33006,3.06591 15.58437,5.22968 24.47518,6.50297 1.41043,-3.13164 4.20142,-7.76037 6.49846,-10.35144 -7.03722,-0.57972 -13.71407,-1.7505 -19.92684,-3.3244 5.67251,-4.64934 10.25493,-10.11924 13.34803,-16.77785 z"
         style=""
         id="path1000" />
      <path
         d="m 238.60569,110.41269 c -4.23339,-2.51876 -12.74947,-6.40135 -18.22983,-8.86961 l -6.09266,8.5095 c 5.69163,2.9401 14.02752,7.11822 17.88499,9.84437 z m -3.5554,26.08523 c -4.32542,-2.41896 -13.02946,-6.19785 -18.41002,-8.57408 l -5.79713,8.68969 c 5.78367,2.8403 14.21548,7.01453 18.26091,9.63699 z m -11.13949,52.33361 c 5.4744,-9.54133 11.07461,-20.72109 15.75056,-30.99872 l -8.65592,-7.33575 c -5.30467,11.35995 -12.20894,23.55331 -17.00143,30.95329 z m 61.7169,-15.75822 -28.77641,1.16536 -0.57103,-14.10044 28.77641,-1.16536 z m 14.15517,-37.17923 -0.44283,-10.93503 -24.36403,0.98667 -0.53219,-13.14123 c 7.4236,-1.74181 14.54001,-3.95158 20.58575,-6.5023 l -9.09399,-8.663119 c -10.38043,4.647839 -28.28546,8.543539 -44.52606,10.834579 1.44779,2.53549 3.16122,6.88572 3.75348,9.64802 5.92381,-0.81637 12.32335,-1.74808 18.5194,-2.95979 l 0.45449,11.2228 -25.51509,1.03329 0.44284,10.93503 25.51509,-1.03329 0.48945,12.0861 -19.56796,0.79244 1.56936,38.75224 10.35951,-0.41953 -0.15927,-3.93278 28.77641,-1.16536 0.13985,3.45317 10.83911,-0.43896 -1.54993,-38.27262 -19.56796,0.79244 -0.48946,-12.08609 z"
         style=""
         id="path1002" />
      <path
         d="m 330.77299,111.09979 -5.37698,4.82953 c 2.28776,1.925 5.08622,4.59796 7.19768,6.91441 l -16.49848,0.66815 c 2.92964,-3.57748 5.83986,-7.63456 8.44289,-12.1596 z m 9.08292,24.99694 -16.49848,0.66814 -0.202,-4.98791 16.49848,-0.66814 z m -16.00514,12.85016 -0.16315,-4.0287 16.49847,-0.66814 0.16315,4.02869 z m 9.06141,12.60366 c 1.22487,1.77589 2.64546,3.63993 3.97401,5.60378 l -12.16917,3.18302 -0.52053,-12.85346 27.14575,-1.09933 -1.38678,-34.24393 -13.429,0.54384 5.74513,-5.22876 c -1.61243,-1.85627 -4.407,-4.4333 -7.08622,-6.53461 l 14.58005,-0.59045 -0.38845,-9.59214 -20.04757,0.81187 c 0.43688,-1.07456 0.87764,-2.053193 1.21859,-3.123866 l -11.35876,-2.902756 c -2.75095,7.989862 -7.99197,16.176632 -13.63729,21.497422 1.80039,1.75259 4.92933,5.46902 6.86061,8.08101 l 1.70143,42.01357 c 0.1748,4.31646 -1.91874,7.18752 -3.68686,8.60423 1.80428,1.8485 4.57284,6.15601 5.44121,8.61888 2.15181,-1.43224 5.75409,-2.63499 26.64703,-8.66934 1.5437,2.53161 2.98371,4.87526 3.92858,6.85465 l 9.11015,-5.17287 c -2.91499,-5.5506 -8.82027,-13.76638 -13.78845,-20.19461 z m 25.77212,-39.76341 c 2.25819,-3.55029 4.49696,-7.58018 6.42854,-12.07802 l 7.1941,-0.29134 -4.6368,4.127 c 2.68311,2.19723 5.78486,5.24222 7.8004,7.56256 z m 35.10426,-22.847174 -25.03548,1.013867 c 0.33708,-1.166595 0.67026,-2.429111 1.00733,-3.595706 l -11.72302,-2.407611 c -2.03677,9.017804 -6.37954,18.032914 -11.62176,23.817774 2.46796,1.62947 6.45631,5.21502 8.65981,7.43167 l 2.389,58.99165 10.74319,-0.43507 -2.10154,-51.89347 14.96374,-0.60599 1.17702,29.06418 c 0.0505,1.24698 -0.41357,1.65009 -1.85239,1.70836 -1.33902,0.1503 -6.13509,0.34453 -10.45932,0.32749 1.45944,2.82326 3.17675,7.26941 3.68474,10.32336 7.00226,-0.28358 11.89037,-0.57761 15.27362,-2.44404 3.67101,-1.87808 4.41777,-4.79068 4.20411,-10.06636 l -1.6082,-39.71145 -13.71675,0.55549 6.57734,-6.03108 c -1.31301,-1.58017 -3.80428,-3.78517 -6.19185,-5.80221 l 16.01887,-0.64872 z"
         style=""
         id="path1004" />
      <path
         d="m 439.75192,92.755032 2.99499,73.955378 c 0.0738,1.82251 -0.66638,2.52503 -2.77665,2.61049 -2.10638,0.18139 -9.20456,0.46884 -15.45111,0.43357 1.85478,3.09549 4.18258,8.38162 4.98999,11.71168 9.30438,-0.3768 15.81149,-1.02463 20.24599,-3.02971 4.14673,-1.99343 5.64921,-5.22487 5.36563,-12.22713 l -2.99498,-73.955385 z m 23.84316,24.110958 c 8.14493,13.69764 16.16525,31.43563 18.55371,42.96443 l 12.27166,-5.39698 c -2.8836,-11.89306 -11.45226,-28.9363 -19.77349,-42.24248 z m -48.08888,-1.22313 c -1.50936,12.55135 -5.62563,29.53182 -12.907,39.53064 3.02794,1.22248 8.41239,3.69463 11.36772,5.49652 7.53417,-10.87377 11.9914,-28.92491 14.67393,-43.34927 z"
         style=""
         id="path1006" />
      <path
         d="m 529.82476,117.64272 c 0.41953,10.3595 0.18165,25.83781 -7.34864,36.8075 2.16465,1.25744 5.55417,4.29077 7.07068,6.15093 7.28526,-9.90291 9.23149,-23.52882 9.44845,-34.77881 l 5.8512,-0.23696 c 0.0627,18.15633 -0.44049,24.71006 -1.51774,26.57918 -0.6326,0.98641 -1.2924,1.30137 -2.34753,1.3441 -1.24698,0.0505 -3.26133,0.13207 -5.5751,-0.0625 1.34798,2.44345 2.46257,6.24146 2.76707,9.01541 3.26521,-0.0362 6.33081,-0.25638 8.23758,-0.62183 2.37862,-0.57672 4.07412,-1.41402 5.51564,-3.77828 2.1778,-3.16271 2.5606,-12.69001 2.39449,-38.14413 -0.0505,-1.24698 -0.0633,-3.93666 -0.0633,-3.93666 l -15.44334,0.62541 -0.303,-7.48187 13.23715,-0.53607 -0.36426,0.49515 c 1.86912,1.07725 4.93591,3.25894 6.92038,4.81191 l 0.23307,5.75529 13.04531,-0.5283 c -1.46094,1.88466 -3.21352,3.68505 -4.88573,5.09787 l 0.21754,5.3716 -10.64727,0.43118 0.36514,9.01661 10.64728,-0.43119 0.46614,11.51057 c 0.0388,0.95921 -0.23726,1.25863 -1.38832,1.30525 -1.05513,0.0427 -4.60423,0.18645 -8.06128,0.23038 1.54759,2.62753 3.04975,6.50592 3.45017,9.27599 5.46752,-0.22142 9.48845,-0.57642 12.30394,-2.2277 3.10325,-1.66293 3.57389,-4.27611 3.39132,-8.78442 l -0.47391,-11.7024 11.12687,-0.45061 -0.36514,-9.01661 -11.12688,0.45061 -0.12819,-3.16541 c 3.69701,-3.60855 7.27479,-7.78875 10.18889,-11.74991 l -6.23339,-4.45542 -1.79919,0.64934 -16.97809,0.68756 c 0.98133,-1.86523 1.96266,-3.73047 2.8403,-5.78366 l 22.4456,-0.90899 -0.3768,-9.304372 -18.22506,0.738064 c 0.85821,-2.532801 1.71643,-5.065602 2.28688,-7.58675 l -9.60498,-2.301228 c -1.56225,6.500538 -3.88409,13.223996 -6.93177,18.631746 l -0.22141,-5.467518 -9.30438,0.376801 0.7596,-0.222919 c -0.8074,-3.330056 -2.73987,-8.343967 -4.33796,-12.218476 l -9.90201,2.2265 c 1.28313,3.214712 2.6051,7.388638 3.50455,10.618888 l -12.85347,0.520534 0.37681,9.30437 7.38594,-0.29911 z m -9.72629,-14.78655 c -2.5573,-3.835662 -7.40625,-9.692251 -11.52549,-14.13721 l -8.53462,5.149562 c 3.93128,4.54865 8.80742,11.076688 11.17677,15.016038 z m -0.4913,30.57292 -1.81085,0.36157 -5.17976,0.20977 c 4.52804,-6.81281 9.82225,-16.0586 12.96585,-21.47024 l -7.1188,-2.59407 -1.41551,0.6338 -18.4169,0.74583 0.36903,9.11253 11.89425,-0.48168 c -3.05545,5.21591 -6.39089,10.63531 -7.95551,12.33201 -1.6489,1.98835 -3.15256,2.81787 -4.76769,3.2676 1.1406,2.06754 3.44509,6.77815 4.11774,9.15287 0.73629,-0.79845 3.58674,-1.58643 5.79293,-1.67578 l 5.56344,-0.2253 c -2.16527,12.96223 -7.05249,22.76802 -14.69274,28.64999 2.16854,1.35336 6.16078,5.03484 7.69283,7.27868 4.1805,-3.53205 7.82701,-8.38758 10.75158,-14.4629 7.70178,9.87244 19.00227,11.33638 36.74773,10.61774 11.2228,-0.45449 23.39316,-1.2356 33.34568,-2.21512 0.44733,-3.18871 1.68027,-8.33081 3.21771,-10.69896 -10.79639,1.49409 -26.50419,2.70668 -36.76777,3.12233 -16.11868,0.55668 -27.01218,-0.34726 -32.99903,-10.57739 1.69312,-5.64113 2.87168,-12.12613 3.54343,-19.26316 z"
         style=""
         id="path1008" />
      <path
         d="m 681.90346,98.321168 c -2.07769,-3.855086 -6.37054,-10.214588 -9.63425,-14.886352 l -8.17812,4.462575 c 3.17167,4.771569 7.19229,11.526411 9.17795,15.481299 z m -74.7619,9.176682 10.35951,-0.41953 0.19811,4.89199 -9.56106,1.15583 0.90841,5.82401 8.88572,-1.22456 c 0.24084,5.94713 1.80786,9.05427 8.90604,8.76681 l 10.26358,-0.41565 c 2.49396,-0.101 5.46364,-0.31734 6.87915,-0.95113 -0.46914,-2.09474 -0.63499,-3.81744 -0.92394,-6.2077 -1.4194,0.53787 -4.86869,0.77364 -6.69119,0.84744 l -6.90634,0.27969 c -2.11027,0.0855 -2.33708,-0.77006 -2.41865,-2.78441 l -0.0272,-0.67145 9.17349,-1.23621 -0.99656,-5.62828 -8.41389,1.01329 -0.16315,-4.0287 11.70241,-0.47392 c -0.36696,2.80115 -0.83372,5.51025 -1.23564,7.4481 l 8.11567,1.11252 c 1.18752,-3.89124 2.47365,-10.09236 3.31902,-15.314843 l -6.85704,-0.875253 -1.33124,0.342148 -14.48413,0.586566 -0.14373,-3.549091 19.75981,-0.800216 -0.29523,-7.290025 -19.7598,0.800217 -0.19423,-4.796069 -10.55135,0.4273 0.63318,15.635184 -17.74545,0.718642 1.05271,25.99469 c 0.49334,12.18202 0.79333,29.07972 -4.09658,41.1915 1.96115,0.97745 6.31377,4.06785 7.91843,5.73229 5.70659,-13.29781 6.03024,-33.77567 5.48252,-47.30059 z m 40.30548,20.17761 -37.50526,1.51885 0.28357,7.00226 37.50526,-1.51885 z m -26.34015,16.24713 15.82703,-0.64095 0.17869,4.41238 -15.82703,0.64095 z m 25.23986,8.77788 -0.61764,-15.2515 -33.38064,1.35183 0.61764,15.2515 z m 27.43624,-34.25824 c -1.47409,6.30482 -3.71166,12.73662 -6.54807,18.61621 -0.99268,-5.53236 -1.93605,-12.21967 -2.80291,-19.39046 l 19.07939,-3.36679 -1.64709,-9.8294 -18.41183,3.24367 c -0.70221,-7.850012 -1.32793,-16.183518 -1.67754,-24.816442 l -10.45543,0.423416 c 0.56864,9.296604 1.2099,18.013796 1.92377,26.151576 l -6.58361,1.13132 1.74689,9.92144 5.91605,-1.00821 c 1.34886,11.95521 3.01537,22.26422 5.26787,30.43577 -3.37041,4.55611 -7.15557,8.36039 -11.16365,11.40507 l -0.0583,-1.43882 -7.74632,0.89017 c 1.1654,-2.06485 2.3308,-4.12969 3.48843,-6.38638 l -9.45467,-0.96222 c -0.67026,2.42911 -1.88886,5.55298 -3.02707,8.28928 l -5.16421,0.59345 c -0.67653,-2.47065 -1.85209,-5.40148 -3.00822,-7.85271 l -7.61932,1.65366 c 0.85671,2.17512 1.82489,4.73004 2.49753,7.10476 l -10.33232,1.09098 1.38921,8.20651 c 10.716,-1.10652 25.34147,-2.94783 39.29549,-4.76195 l -0.15926,-3.93278 c 2.27611,1.63724 4.86718,3.93428 6.4835,5.88647 3.07606,-2.33438 5.84105,-5.23263 8.59438,-8.41865 3.23771,6.40223 7.13015,9.99166 12.12583,9.98151 3.74481,-0.0556 8.29735,-3.89093 10.05055,-19.91099 -1.86524,-0.98133 -6.40193,-3.87213 -8.12582,-6.1082 -0.1533,8.07682 -0.92994,12.62397 -2.36876,12.68224 -1.53863,-0.0338 -3.17437,-2.46558 -4.59227,-6.63562 5.31364,-8.76619 9.32591,-18.82478 11.71141,-28.72141 z"
         style=""
         id="path1010" />
    </g>
    <path
       style="fill:none;stroke:none;stroke-width:0.786;stroke-linecap:butt;stroke-linejoin:miter;stroke-opacity:1;stroke-miterlimit:4;stroke-dasharray:none"
       d="m -364.11451,148.50999 344.206905,42.89352 749.392525,-30.3483 248.51026,23.64077 v 0"
       id="path966"
       inkscape:connector-curvature="0"
       sodipodi:nodetypes="ccccc" />
  </g>
  <metadata
     id="metadata26">
    <rdf:RDF>
      <cc:Work>
        <dc:format>image/svg+xml</dc:format>
        <dc:type
           rdf:resource="http://purl.org/dc/dcmitype/StillImage" />
        <cc:license
           rdf:resource="http://creativecommons.org/publicdomain/zero/1.0/" />
        <dc:publisher>
          <cc:Agent
             rdf:about="http://openclipart.org/">
            <dc:title>Openclipart</dc:title>
          </cc:Agent>
        </dc:publisher>
        <dc:title></dc:title>
        <dc:date>2012-02-05T20:38:48</dc:date>
        <dc:description>A red plane flying with a banner attached</dc:description>
        <dc:source>https://openclipart.org/detail/167737/airplane-with-banner-by-dear_theophilus</dc:source>
        <dc:creator>
          <cc:Agent>
            <dc:title>dear_theophilus</dc:title>
          </cc:Agent>
        </dc:creator>
        <dc:subject>
          <rdf:Bag>
            <rdf:li>airplane</rdf:li>
            <rdf:li>banner</rdf:li>
            <rdf:li>fly</rdf:li>
            <rdf:li>flying</rdf:li>
            <rdf:li>plane</rdf:li>
            <rdf:li>propeller</rdf:li>
          </rdf:Bag>
        </dc:subject>
      </cc:Work>
      <cc:License
         rdf:about="http://creativecommons.org/publicdomain/zero/1.0/">
        <cc:permits
           rdf:resource="http://creativecommons.org/ns#Reproduction" />
        <cc:permits
           rdf:resource="http://creativecommons.org/ns#Distribution" />
        <cc:permits
           rdf:resource="http://creativecommons.org/ns#DerivativeWorks" />
      </cc:License>
    </rdf:RDF>
  </metadata>
</svg>
