<?xml version="1.0" encoding="UTF-8" standalone="no"?>
<!-- Created with Inkscape (http://www.inkscape.org/) -->

<svg
   xmlns:dc="http://purl.org/dc/elements/1.1/"
   xmlns:cc="http://creativecommons.org/ns#"
   xmlns:rdf="http://www.w3.org/1999/02/22-rdf-syntax-ns#"
   xmlns:svg="http://www.w3.org/2000/svg"
   xmlns="http://www.w3.org/2000/svg"
   xmlns:sodipodi="http://sodipodi.sourceforge.net/DTD/sodipodi-0.dtd"
   xmlns:inkscape="http://www.inkscape.org/namespaces/inkscape"
   id="svg2"
   sodipodi:docname="rabbit_happyeaster_DFD.svg"
   viewBox="0 0 670.82 455.69"
   version="1.1"
   inkscape:version="0.92.4 (5da689c313, 2019-01-14)"
   inkscape:export-filename="/home/franklin/libreoffice/Marketing_material/Easter/img/rabbit_happyeaster_DFD.png"
   inkscape:export-xdpi="89.909447"
   inkscape:export-ydpi="89.909447">
  <defs
     id="defs59" />
  <sodipodi:namedview
     id="base"
     bordercolor="#666666"
     inkscape:pageshadow="2"
     inkscape:window-y="0"
     fit-margin-left="0"
     pagecolor="#ffffff"
     inkscape:window-height="993"
     inkscape:window-maximized="1"
     inkscape:zoom="1.6192745"
     inkscape:window-x="0"
     showgrid="false"
     borderopacity="1.0"
     inkscape:current-layer="g4450"
     inkscape:cx="246.07388"
     inkscape:cy="288.43097"
     fit-margin-top="0"
     fit-margin-right="0"
     fit-margin-bottom="0"
     inkscape:window-width="1920"
     inkscape:pageopacity="0.0"
     inkscape:document-units="px" />
  <g
     id="layer1"
     inkscape:label="Layer 1"
     inkscape:groupmode="layer"
     transform="translate(-55.231 -157.78)">
    <path
       id="path4299"
       d="m721.4 372.01c-46.03 182.1-111.94 234.88-391.22 210.48-250.22-21.86-248.18-46.1-258.25-184.28-13.615-186.75 138.85-224.45 333.26-224.45s350.08 64.242 316.21 198.25z"
       sodipodi:nodetypes="sssss"
       style="fill:#ffffc9"
       inkscape:connector-curvature="0" />
    <g
       id="g888">
      <path
         inkscape:connector-curvature="0"
         style="fill:#0197fd"
         sodipodi:nodetypes="sssss"
         d="m253.05 248.9c6.3896 42.552-5.6816 79.637-26.962 82.833-21.28 3.1954-43.711-28.709-50.1-71.261-6.3896-42.552-1.7112-98.716 19.569-101.91 21.28-3.1954 51.104 47.788 57.493 90.34z"
         id="path4133" />
      <path
         d="m246.38 250.35c4.7448 42.766-8.7468 79.359-30.134 81.732-21.387 2.3729-42.572-30.373-47.317-73.139-4.7448-42.766 2.0948-98.709 23.482-101.08 21.387-2.3729 49.224 49.722 53.969 92.489z"
         inkscape:connector-curvature="0"
         style="fill:#33b5e5"
         sodipodi:nodetypes="sssss"
         id="path3829" />
      <path
         d="m231.68 262.56c3.3244 29.964-6.719 57.311-17.65 58.524-10.931 1.2128-22.488-22.095-25.812-52.059-3.3244-29.964-1.8483-71.855 7.7353-66.458 17.06 9.606 32.403 30.029 35.727 59.994z"
         inkscape:connector-curvature="0"
         style="fill:#b3defd"
         sodipodi:nodetypes="sssss"
         id="path3850" />
      <path
         inkscape:connector-curvature="0"
         style="fill:#0197fd"
         sodipodi:nodetypes="sssss"
         d="m339.59 217.14c-28.641 15.604-58.932 60.763-67.657 100.87-8.7242 40.103 7.4219 59.964 36.063 44.36s56.916-48.285 65.64-88.388c8.7242-40.103-5.4054-72.441-34.047-56.838z"
         id="path4153" />
      <path
         d="m335.79 214.46c-28.641 15.604-58.932 60.763-67.657 100.87-8.7242 40.103 7.4219 59.964 36.063 44.36s56.916-48.285 65.64-88.388c8.7242-40.103-5.4054-72.441-34.047-56.838z"
         inkscape:connector-curvature="0"
         style="fill:#33b5e5"
         sodipodi:nodetypes="sssss"
         id="path3829-1" />
      <path
         d="m337.93 300.75c-20.73 27.208-44.973 64.547-54.826 59.66-9.8526-4.8878-5.5167-33.691 9.6847-64.333s57.912-63.752 67.764-58.864c9.8527 4.8878-3.9095 38.976-22.623 63.538z"
         inkscape:connector-curvature="0"
         style="fill:#b3defd"
         sodipodi:nodetypes="sssss"
         id="path3850-6" />
      <path
         d="m333.12 413.58c13.517 76.54-21.531 101.52-114.7 94.768-77.695-5.6297-126.58-42.603-110.6-96.04 24.106-80.614 55.773-99.167 111.91-91.381 71.762 9.9521 103.29 35.477 113.39 92.653z"
         inkscape:connector-curvature="0"
         style="fill:#0197fd"
         sodipodi:nodetypes="sssss"
         id="path3763" />
      <path
         inkscape:connector-curvature="0"
         style="fill:#33b5e5"
         sodipodi:nodetypes="sssss"
         d="m330.91 406.41c13.52 76.54-21.53 101.52-114.7 94.77-77.69-5.63-126.58-42.61-110.6-96.04 24.106-80.614 55.773-99.167 111.91-91.381 71.762 9.9521 103.29 35.477 113.39 92.653z"
         id="path4131" />
      <path
         sodipodi:cx="407.23578"
         sodipodi:cy="398.93781"
         transform="matrix(.68404 .066160 -.068628 .70955 -104.56 100.61)"
         d="m439.85 398.94c0 17.534-14.602 31.748-32.613 31.748-18.012 0-32.614-14.214-32.614-31.748s14.602-31.748 32.614-31.748 32.613 14.214 32.613 31.748z"
         sodipodi:type="arc"
         style="fill:#ffffff"
         sodipodi:ry="31.747652"
         sodipodi:rx="32.613495"
         id="path3766" />
      <path
         sodipodi:cx="407.23578"
         sodipodi:cy="398.93781"
         transform="matrix(.48453 .046864 -.049972 .51667 -28.36 188.34)"
         d="m439.85 398.94c0 17.534-14.602 31.748-32.613 31.748-18.012 0-32.614-14.214-32.614-31.748s14.602-31.748 32.614-31.748 32.613 14.214 32.613 31.748z"
         sodipodi:type="arc"
         style="fill:#000000"
         sodipodi:ry="31.747652"
         sodipodi:rx="32.613495"
         id="path3766-2" />
      <path
         d="m234.1 430.62c-0.88242 9.1234-12.315 16.446-23.889 15.327-11.574-1.1194-18.907-10.257-18.025-19.381 0.88242-9.1234 9.86-7.8545 21.395-6.3288s21.401 1.2592 20.518 10.383z"
         inkscape:connector-curvature="0"
         style="fill:#0169c9"
         sodipodi:nodetypes="ssszs"
         id="path3827" />
      <path
         d="m208.78 465.72c9.7958 7.461 26.743 19.035 33.639-14.507"
         inkscape:connector-curvature="0"
         style="stroke:#000000;stroke-linecap:round;stroke-miterlimit:1.3;stroke-width:3.4;fill:none"
         sodipodi:nodetypes="cc"
         id="path3902" />
      <path
         d="m169.45 453.52c-0.73786 7.6288-7.7022 13.197-15.555 12.438-7.8532-0.75956-13.621-7.5596-12.883-15.188 0.73786-7.6288 7.2174-12.424 15.071-11.665 7.8531 0.75956 14.106 6.7864 13.368 14.415z"
         inkscape:connector-curvature="0"
         style="fill:#b3defd"
         sodipodi:nodetypes="sssss"
         id="path4024" />
      <path
         d="m282.35 464.85c-0.73786 7.6288-7.7022 13.197-15.555 12.438-7.8531-0.75956-13.621-7.5596-12.883-15.188 0.73786-7.6288 7.2174-12.424 15.071-11.665 7.8531 0.75956 14.106 6.7864 13.368 14.415z"
         inkscape:connector-curvature="0"
         style="fill:#b3defd"
         sodipodi:nodetypes="sssss"
         id="path4024-3" />
      <path
         sodipodi:cx="407.23578"
         sodipodi:cy="398.93781"
         transform="matrix(.68404 .066160 -.068628 .70955 40.98 112.74)"
         d="m439.85 398.94c0 17.534-14.602 31.748-32.613 31.748-18.012 0-32.614-14.214-32.614-31.748s14.602-31.748 32.614-31.748 32.613 14.214 32.613 31.748z"
         sodipodi:type="arc"
         style="fill:#ffffff"
         sodipodi:ry="31.747652"
         sodipodi:rx="32.613495"
         id="path3766-6" />
      <path
         sodipodi:cx="407.23578"
         sodipodi:cy="398.93781"
         transform="matrix(.50321 .048671 -.054304 .56145 108.8 181.59)"
         d="m439.85 398.94c0 17.534-14.602 31.748-32.613 31.748-18.012 0-32.614-14.214-32.614-31.748s14.602-31.748 32.614-31.748 32.613 14.214 32.613 31.748z"
         sodipodi:type="arc"
         style="fill:#000000"
         sodipodi:ry="31.747652"
         sodipodi:rx="32.613495"
         id="path3766-2-2" />
      <path
         d="m114.94 439.03c-21.115-6.4-38.093-7.97-54.982-16.35"
         inkscape:connector-curvature="0"
         style="stroke:#000000;stroke-linecap:round;stroke-width:2.004;fill:none"
         sodipodi:nodetypes="cc"
         id="path4161" />
      <path
         d="m113.66 444.57c-22.025-1.2812-38.898 1.1704-57.28-3.022"
         inkscape:connector-curvature="0"
         style="stroke:#000000;stroke-linecap:round;stroke-width:2.004;fill:none"
         sodipodi:nodetypes="cc"
         id="path4161-8" />
      <path
         inkscape:transform-center-x="14.513255"
         inkscape:connector-curvature="0"
         inkscape:transform-center-y="-7.2246641"
         sodipodi:nodetypes="cc"
         d="m117.55 450.73c-21.595 4.5172-37.241 11.292-56.08 12.047"
         style="stroke:#000000;stroke-linecap:round;stroke-width:2.004;fill:none"
         id="path4161-8-6" />
      <path
         d="m310.46 455.19c22.621 2.8356 40.426-0.11032 58.872 6.9124"
         inkscape:connector-curvature="0"
         style="stroke:#000000;stroke-linecap:round;stroke-width:2.4941;fill:none"
         sodipodi:nodetypes="cc"
         id="path4161-9" />
      <path
         d="m308.32 459.67c24.46 7.7557 44.71 9.5436 63.75 19.795"
         inkscape:connector-curvature="0"
         style="stroke:#000000;stroke-linecap:round;stroke-width:2.4532;fill:none"
         sodipodi:nodetypes="cc"
         id="path4161-8-8" />
      <path
         inkscape:transform-center-x="-16.709169"
         inkscape:connector-curvature="0"
         inkscape:transform-center-y="-6.0929072"
         sodipodi:nodetypes="cc"
         d="m300.97 465.77c23.599 7.8535 40.029 16.432 61.226 20.656"
         style="stroke:#000000;stroke-linecap:round;stroke-width:1.9746;fill:none"
         id="path4161-8-6-6" />
    </g>
    <g
       id="g940">
      <path
         id="path4159"
         sodipodi:nodetypes="sssss"
         style="fill:#ff62ff"
         inkscape:connector-curvature="0"
         d="m 556.73043,268.22163 c 4.54494,42.78801 25.57573,75.63235 46.97423,73.35967 21.39849,-2.27297 35.06027,-38.80207 30.51613,-81.59009 -4.54494,-42.78801 -23.23226,-95.95865 -44.63076,-93.68597 -21.3985,2.27298 -37.40474,59.12839 -32.8595,101.92039 z" />
      <path
         id="path3829-4"
         d="m 552.65559,268.06966 c 4.54494,42.788 25.57573,75.63235 46.97423,73.35967 21.3985,-2.27298 35.06027,-38.80207 30.51613,-81.5901 -4.54494,-42.788 -23.23226,-95.95864 -44.63076,-93.68596 -21.39849,2.27298 -37.40473,59.12839 -32.8595,101.92039 z"
         sodipodi:nodetypes="sssss"
         style="fill:#ff9bff"
         inkscape:connector-curvature="0" />
      <path
         id="path3850-5"
         d="m 563.92745,281.72232 c 3.18446,29.97904 18.86296,54.5328 29.80017,53.37123 10.93721,-1.16173 17.22145,-26.40613 14.03697,-56.38617 -3.18446,-29.97905 -13.61759,-70.5767 -21.81961,-63.24917 -14.60028,13.04418 -25.20201,36.28407 -22.01753,66.26411 z"
         sodipodi:nodetypes="sssss"
         style="fill:#fdd99b"
         inkscape:connector-curvature="0" />
      <path
         id="path4157"
         sodipodi:nodetypes="sssss"
         style="fill:#ff62ff"
         inkscape:connector-curvature="0"
         d="m 530.33676,201.07742 c 10.45937,30.89321 2.08167,84.62141 -18.71214,120.00513 -20.7938,35.38371 -46.12914,39.02354 -56.58872,8.12963 -10.45937,-30.89321 -9.06422,-74.0853 11.72957,-109.47402 20.79341,-35.3837 53.11161,-49.55865 63.57118,-18.66544 z" />
      <path
         id="path3829-1-8"
         d="m 534.95705,198.12537 c 10.45937,30.89321 2.08167,84.62141 -18.71214,120.00512 -20.79381,35.38372 -46.12914,39.02354 -56.58873,8.12963 -10.45936,-30.89321 -9.06421,-74.0853 11.72958,-109.47402 20.79341,-35.3837 53.11161,-49.55864 63.57117,-18.66543 z"
         sodipodi:nodetypes="sssss"
         style="fill:#ff9bff"
         inkscape:connector-curvature="0" />
      <path
         id="path3850-6-8"
         d="m 475.44252,265.54729 c -9.61673,32.82597 -9.10538,77.12549 1.44988,80.21834 10.55448,3.09227 26.90708,-21.01168 36.52381,-53.83765 9.61673,-32.82596 8.85672,-61.9431 -1.69804,-65.03597 -10.55448,-3.09227 -26.65943,5.82913 -36.27615,38.65529 z"
         sodipodi:nodetypes="sssss"
         style="fill:#fdd99b"
         inkscape:connector-curvature="0" />
      <path
         id="path4155"
         sodipodi:nodetypes="sssss"
         style="fill:#ff67ff"
         inkscape:connector-curvature="0"
         d="m 421.68536,411.73347 c -13.09009,73.90346 22.08028,97.51081 115.17469,89.80098 77.63075,-6.42918 126.28941,-42.67789 110.02082,-93.94419 -24.53952,-77.33979 -56.29497,-94.80056 -112.36623,-86.57465 -71.67666,10.51586 -103.05516,35.51162 -112.82928,90.71786 z" />
      <path
         id="path3763-1"
         d="m 420.8318,403.70168 c -13.09008,73.90346 22.08029,97.51082 115.1747,89.80099 77.63075,-6.42918 126.28941,-42.6779 110.02082,-93.94419 -24.53953,-77.33979 -51.30017,-90.83863 -107.36941,-82.61177 -71.67666,10.51586 -108.05198,31.54874 -117.82611,86.75497 z"
         sodipodi:nodetypes="sssss"
         style="fill:#ff9bff"
         inkscape:connector-curvature="0" />
      <ellipse
         id="path3766-21"
         style="fill:#ffffff;stroke-width:0.69992548"
         transform="matrix(-0.99440581,0.10562713,0.10562507,0.99440603,0,0)"
         cx="-558.86102"
         cy="463.92303"
         rx="22.412813"
         ry="22.631651" />
      <ellipse
         id="path3766-2-4"
         style="fill:#000000;stroke-width:0.51201791"
         transform="matrix(-0.99398254,0.10953864,0.10184912,0.99479986,0,0)"
         cx="-558.51154"
         cy="468.4447"
         rx="15.882663"
         ry="17.090546" />
      <path
         id="path3827-8"
         d="m 510.88614,426.48085 c 0.91211,8.58694 11.52715,15.40703 22.181,14.27529 10.65385,-1.13168 17.31346,-9.78704 16.40052,-18.37405 -0.91211,-8.58694 -10.58219,-8.14877 -21.23604,-7.01713 -10.65385,1.13168 -18.25743,2.52835 -17.34549,11.11569 z"
         sodipodi:nodetypes="sssss"
         style="fill:#565248"
         inkscape:connector-curvature="0" />
      <path
         id="path3902-2"
         d="m 556.71193,446.1136 c -5.11575,11.65551 -14.7902,30.70787 -42.35265,6.54865"
         sodipodi:nodetypes="cc"
         style="fill:none;stroke:#000000;stroke-width:3.67860007;stroke-linecap:round;stroke-miterlimit:1.29999995"
         inkscape:connector-curvature="0" />
      <path
         id="path4024-2"
         d="m 578.63773,451.90757 c 0.80955,7.62153 7.82595,13.12445 15.67137,12.29138 7.84562,-0.83336 13.54991,-7.68734 12.74023,-15.30906 -0.80956,-7.62153 -7.33391,-12.35607 -15.1797,-11.52199 -7.84562,0.83336 -14.04155,6.91875 -13.23187,14.54067 z"
         sodipodi:nodetypes="sssss"
         style="fill:#fdd99b"
         inkscape:connector-curvature="0" />
      <path
         id="path4024-3-9"
         d="m 475.02317,460.44384 c 0.79715,7.62152 7.70601,13.12434 15.43129,12.29116 7.72538,-0.83336 13.34185,-7.68734 12.5442,-15.30835 -0.79715,-7.62152 -7.22148,-12.35577 -14.94666,-11.5226 -7.72538,0.83338 -13.82648,6.91878 -13.02883,14.53979 z"
         sodipodi:nodetypes="sssss"
         style="fill:#fdd99b"
         inkscape:connector-curvature="0" />
      <ellipse
         id="path3766-6-9"
         style="fill:#ffffff;stroke-width:0.69992548"
         transform="matrix(-0.99440581,0.10562713,0.10562507,0.99440603,0,0)"
         cx="-412.83191"
         cy="461.98132"
         rx="22.412813"
         ry="22.631651" />
      <ellipse
         id="path3766-2-2-8"
         style="fill:#000000;stroke-width:0.53401524"
         transform="matrix(-0.99440591,0.10562612,0.10562701,0.99440582,0,0)"
         cx="-413.50479"
         cy="464.62451"
         rx="16.488026"
         ry="17.90802" />
      <path
         id="path4161-6"
         d="m 437.26695,452.33021 c -21.53825,-4.7786 -38.58673,-5.05036 -56.06399,-12.12216"
         sodipodi:nodetypes="cc"
         style="fill:none;stroke:#000000;stroke-width:2.00399995;stroke-linecap:round"
         inkscape:connector-curvature="0" />
      <path
         id="path4161-8-2"
         d="m 438.48189,458.75283 c -22.01928,1.37546 -38.47466,5.8374 -57.22708,3.88486"
         sodipodi:nodetypes="cc"
         style="fill:none;stroke:#000000;stroke-width:2.00399995;stroke-linecap:round"
         inkscape:connector-curvature="0" />
      <path
         id="path4161-8-6-3"
         sodipodi:nodetypes="cc"
         d="m 441.56535,463.42997 c -20.89465,7.08004 -35.6138,15.6857 -54.22563,18.70052"
         inkscape:transform-center-x="14.513255"
         inkscape:transform-center-y="-7.2246641"
         inkscape:connector-curvature="0"
         style="fill:none;stroke:#000000;stroke-width:2.00399995;stroke-linecap:round" />
      <path
         id="path4161-82"
         d="m 634.82221,426.48796 c 23.59242,-6.41588 42.9531,-8.9887 61.4733,-16.47431"
         sodipodi:nodetypes="cc"
         style="fill:none;stroke:#000000;stroke-width:1.83669996;stroke-linecap:round"
         inkscape:connector-curvature="0" />
      <path
         id="path4161-8-62"
         d="m 634.39286,430.25939 c 25.4834,9.6e-4 44.68397,2.49417 66.24566,0.22756"
         sodipodi:nodetypes="cc"
         style="fill:none;stroke:#000000;stroke-width:1.83669996;stroke-linecap:round"
         inkscape:connector-curvature="0" />
      <path
         id="path4161-8-6-7"
         sodipodi:nodetypes="cc"
         d="m 629.09812,436.35859 c 24.44398,4.19229 41.82731,9.77213 63.45094,11.11708"
         inkscape:transform-center-x="-16.771507"
         inkscape:transform-center-y="-5.2515916"
         inkscape:connector-curvature="0"
         style="fill:none;stroke:#000000;stroke-width:1.83669996;stroke-linecap:round" />
    </g>
    <g
       transform="rotate(-0.55833844,10839.384,10133.619)"
       style="font-size:40px;line-height:125%;font-family:'Claire Hand';letter-spacing:0px;word-spacing:0px;fill:#001f3e"
       id="text4326">
      <g
         transform="matrix(1.1456,-0.03072,0.03072,1.1456,-88.054,-73.222)"
         id="g4450">
        <g
           id="g965"
           transform="translate(-2.364581,-23.812954)">
          <text
             id="text4425-5"
             style="font-size:39.99990082px;line-height:0%;font-family:sans-serif;letter-spacing:0px;word-spacing:0px;fill:#4e9a06;stroke-width:0.9999975"
             transform="rotate(0.55836334)"
             xml:space="preserve"
             y="472.02008"
             x="214.79613"><tspan
               id="tspan942"
               style="font-style:normal;font-variant:normal;font-weight:normal;font-stretch:normal;font-size:27.92292404px;font-family:sans-serif;-inkscape-font-specification:'sans-serif, Normal';font-variant-ligatures:normal;font-variant-caps:normal;font-variant-numeric:normal;font-feature-settings:normal;text-align:start;writing-mode:lr-tb;text-anchor:start">             </tspan><tspan
               id="tspan4427-6"
               y="494.14899"
               x="214.79613"
               style="font-style:normal;font-variant:normal;font-weight:normal;font-stretch:normal;font-size:32.57674408px;line-height:1.25;font-family:sans-serif;-inkscape-font-specification:'sans-serif, Normal';font-variant-ligatures:normal;font-variant-caps:normal;font-variant-numeric:normal;font-feature-settings:normal;text-align:start;writing-mode:lr-tb;text-anchor:start;fill:#4e9a06;stroke-width:0.9999975"
               sodipodi:role="line">Happy Easter &amp; Document Freedom!</tspan><tspan
               style="font-style:normal;font-variant:normal;font-weight:normal;font-stretch:normal;font-size:32.57674408px;font-family:sans-serif;-inkscape-font-specification:'sans-serif, Normal';font-variant-ligatures:normal;font-variant-caps:normal;font-variant-numeric:normal;font-feature-settings:normal;text-align:start;writing-mode:lr-tb;text-anchor:start"
               id="tspan948">  </tspan></text>
          <text
             id="text4425"
             style="font-size:39.99990082px;line-height:0%;font-family:sans-serif;letter-spacing:0px;word-spacing:0px;fill:#73d216;stroke-width:0.9999975"
             transform="rotate(0.55836334)"
             xml:space="preserve"
             y="493.39987"
             x="213.20964"><tspan
               id="tspan4427"
               y="493.39987"
               x="213.20964"
               style="font-style:normal;font-variant:normal;font-weight:normal;font-stretch:normal;font-size:32.57674408px;line-height:1.25;font-family:sans-serif;-inkscape-font-specification:'sans-serif, Normal';font-variant-ligatures:normal;font-variant-caps:normal;font-variant-numeric:normal;font-feature-settings:normal;text-align:start;writing-mode:lr-tb;text-anchor:start;fill:#73d216;stroke-width:0.9999975"
               sodipodi:role="line">Happy Easter &amp; Document Freedom!</tspan><tspan
               id="tspan952"
               style="font-style:normal;font-variant:normal;font-weight:normal;font-stretch:normal;font-size:32.57674408px;font-family:sans-serif;-inkscape-font-specification:'sans-serif, Normal';font-variant-ligatures:normal;font-variant-caps:normal;font-variant-numeric:normal;font-feature-settings:normal;text-align:start;writing-mode:lr-tb;text-anchor:start">  </tspan></text>
        </g>
      </g>
    </g>
  </g>
  <metadata
     id="metadata56">
    <rdf:RDF>
      <cc:Work>
        <dc:format>image/svg+xml</dc:format>
        <dc:type
           rdf:resource="http://purl.org/dc/dcmitype/StillImage" />
        <cc:license
           rdf:resource="http://creativecommons.org/publicdomain/zero/1.0/" />
        <dc:publisher>
          <cc:Agent
             rdf:about="http://openclipart.org/">
            <dc:title>Openclipart</dc:title>
          </cc:Agent>
        </dc:publisher>
        <dc:title />
      </cc:Work>
      <cc:License
         rdf:about="http://creativecommons.org/publicdomain/zero/1.0/">
        <cc:permits
           rdf:resource="http://creativecommons.org/ns#Reproduction" />
        <cc:permits
           rdf:resource="http://creativecommons.org/ns#Distribution" />
        <cc:permits
           rdf:resource="http://creativecommons.org/ns#DerivativeWorks" />
      </cc:License>
    </rdf:RDF>
  </metadata>
</svg>
